PathFileType	4	(X/Y/Z)	 s06c0403.trc
DataRate	CameraRate	NumFrames	NumMarkers	Units	OrigDataRate	OrigDataStartFrame	OrigNumFrames
200	200	4	48	mm	200	251	2000
Frame#	Time	racr			lacr			c7			jug			rlel			rdr			llel			ldr			s2			lic			ric			lasi			rasi			rpsi			lpsi			rgt			lgt			rth1			rth2			rth3			rth4			rlfc			rmfc			rsh1			rsh2			rsh3			rsh4			rlmal			rcal			rtoe			rmt5			lth1			lth2			lth4			lth3			llfc			lmfc			llmal			lcal			lmt5			lsh1			lsh2			lsh3			lsh4			ltoe			SBIKE			LBIKE			RBIKE			
		X1	Y1	Z1	X2	Y2	Z2	X3	Y3	Z3	X4	Y4	Z4	X5	Y5	Z5	X6	Y6	Z6	X7	Y7	Z7	X8	Y8	Z8	X9	Y9	Z9	X10	Y10	Z10	X11	Y11	Z11	X12	Y12	Z12	X13	Y13	Z13	X14	Y14	Z14	X15	Y15	Z15	X16	Y16	Z16	X17	Y17	Z17	X18	Y18	Z18	X19	Y19	Z19	X20	Y20	Z20	X21	Y21	Z21	X22	Y22	Z22	X23	Y23	Z23	X24	Y24	Z24	X25	Y25	Z25	X26	Y26	Z26	X27	Y27	Z27	X28	Y28	Z28	X29	Y29	Z29	X30	Y30	Z30	X31	Y31	Z31	X32	Y32	Z32	X33	Y33	Z33	X34	Y34	Z34	X35	Y35	Z35	X36	Y36	Z36	X37	Y37	Z37	X38	Y38	Z38	X39	Y39	Z39	X40	Y40	Z40	X41	Y41	Z41	X42	Y42	Z42	X43	Y43	Z43	X44	Y44	Z44	X45	Y45	Z45	X46	Y46	Z46	X47	Y47	Z47	X48	Y48	Z48	
251	1.2550	493.874417	1297.198451	-44.551438	501.174433	1293.778464	-380.411193	473.478165	1399.576455	-209.724825	504.300935	1237.897421	-204.075013	462.786231	1031.600296	50.223851	664.661211	938.208313	-31.177056	455.590933	1036.651849	-472.045390	629.883108	837.404835	-425.832165	-29.133133	1155.256303	-222.287255	148.017650	1088.889040	-380.363712	122.489114	1104.974297	-46.713205	149.183741	1024.100989	-351.155034	133.567351	1045.979384	-74.359621	7.551456	1186.258157	-189.383778	9.381742	1183.558065	-250.593743	80.278842	1061.963114	-11.716919	93.940328	1029.375534	-414.433006	175.976422	987.341692	-18.392184	260.992743	956.075278	-24.569508	317.022632	889.721244	-27.327887	278.007865	984.123619	-44.348531	379.238300	800.738548	-49.814880	371.449613	773.602494	-159.084700	345.533797	682.676851	-21.994871	337.698974	596.703486	-39.380537	291.326043	523.366642	-39.176542	358.141752	593.273965	-73.462426	256.103759	444.608086	-40.963665	191.971971	412.456094	-87.082863	468.301703	402.515911	-97.447902	374.541555	378.465287	-24.084990	131.785181	916.459641	-424.342363	198.735861	861.178917	-416.214070	227.544434	882.082020	-403.758969	228.950062	777.356574	-408.580554	255.956546	668.616502	-379.338457	249.662869	655.059968	-261.729135	1.283973	394.534612	-374.149367	-75.692862	403.915881	-327.643887	75.192869	275.678771	-395.337945	191.451319	584.235231	-401.991200	148.400356	511.254124	-380.886521	73.847234	463.021929	-383.503873	165.563060	499.292343	-346.693399	152.563115	240.096310	-335.324713	-204.798147	866.873756	-203.131473	-52.133487	83.762945	-410.344163	-50.896936	80.113020	-12.977780	
252	1.2600	495.402934	1295.907616	-43.843318	502.706162	1292.704880	-380.019997	475.181592	1398.434692	-209.356274	505.644176	1236.571505	-203.816213	462.740835	1029.963204	49.976709	664.034709	938.390747	-31.061091	455.119374	1036.094628	-472.065314	629.908429	837.265070	-425.944876	-27.985224	1155.603940	-222.188205	148.831640	1089.293160	-380.448708	123.580504	1104.731849	-47.687749	149.771587	1024.336461	-351.317225	133.968366	1045.615732	-75.343278	8.773251	1186.643489	-189.307803	10.532983	1183.858820	-250.429363	81.703386	1061.852521	-11.871550	94.710551	1030.091262	-414.487064	176.879928	986.310667	-18.469197	261.664320	954.342609	-24.692827	317.113862	887.517632	-27.461976	278.996296	982.306437	-44.348674	378.842857	797.990484	-49.820056	370.693249	770.741319	-158.730060	345.219074	679.949118	-21.962709	338.051079	593.825718	-39.233155	291.595450	520.423237	-39.161950	358.150886	590.599681	-73.461820	256.209519	441.881740	-40.940940	191.844985	408.045579	-88.464298	468.549490	400.982646	-97.263118	374.879349	376.368955	-23.957133	132.564867	917.417805	-424.484525	199.727250	862.321029	-416.598282	228.441860	883.192904	-404.082756	230.150541	778.582622	-409.153093	257.504598	669.471473	-379.397610	251.419219	656.216697	-261.775845	1.731495	396.312487	-374.069325	-75.437552	406.199360	-327.438921	74.853197	277.457199	-395.204063	192.774691	585.314731	-401.951354	149.226013	512.643216	-380.920279	74.399290	464.810365	-383.647439	166.340039	500.687588	-346.811445	152.081650	241.397601	-335.358027	-204.694771	866.894561	-203.125905	-52.148410	83.742932	-410.296111	-50.833254	80.041161	-12.982215	
253	1.2650	497.022885	1294.221184	-43.757889	504.204083	1291.614027	-379.610313	476.902080	1397.313771	-208.952528	507.000784	1235.379875	-203.551892	461.647233	1029.230227	50.915818	663.376422	938.445128	-30.866869	454.704607	1035.518773	-472.192008	629.778479	837.032231	-426.104703	-26.886805	1156.030530	-222.127542	149.495941	1089.724043	-380.672173	124.671590	1104.619500	-47.703546	150.289488	1024.590365	-351.322636	135.217695	1045.657872	-75.627684	10.007431	1187.020112	-189.141106	11.664011	1184.219413	-250.344010	83.247354	1061.613723	-12.156354	95.388019	1030.775424	-414.686492	177.888309	985.451053	-18.711498	262.323854	952.638788	-24.725289	317.251961	885.345011	-27.552051	279.944207	980.471480	-44.376820	378.515505	795.390508	-49.724188	370.027627	768.102093	-158.365838	344.971886	677.411412	-21.853068	338.110929	591.196871	-39.107300	291.872928	517.631854	-39.132204	358.137600	588.091973	-73.408805	256.329530	439.401358	-40.925812	191.990705	405.236781	-88.305834	468.793910	399.317154	-97.174053	375.190594	374.336957	-23.875809	133.318050	918.284570	-424.687184	200.663375	863.364783	-417.008705	229.338766	884.402793	-404.387007	231.334178	779.729312	-409.664557	258.928947	670.399652	-379.646396	253.050367	657.480909	-261.918491	2.031761	398.136335	-373.946261	-75.293543	408.472691	-327.351246	74.440492	279.193045	-395.125000	193.914718	586.415934	-401.977071	149.913394	513.973033	-380.977208	74.857317	466.495704	-383.723746	166.844014	501.716039	-346.642006	151.645024	242.796531	-335.297656	-204.603679	866.908327	-203.115961	-52.127168	83.787804	-410.333284	-50.894770	80.123529	-12.961166	
254	1.2700	498.614072	1292.529327	-43.732846	505.716089	1290.342545	-379.205952	478.662003	1396.278535	-208.510481	508.375066	1234.214448	-203.285442	460.999424	1028.089815	51.359365	662.683051	938.403446	-30.621711	454.279129	1034.952742	-472.407504	629.726238	837.028083	-426.088282	-25.777595	1156.479322	-222.037117	150.255779	1090.081641	-380.917721	125.699609	1104.489710	-47.830124	150.923518	1024.940917	-351.569207	136.266274	1045.634384	-75.969908	11.050310	1187.396601	-189.004140	12.819947	1184.608570	-250.355587	84.696654	1061.455346	-12.427774	96.042883	1031.356550	-414.901062	178.937004	984.596994	-18.805339	263.124919	951.078300	-24.750567	317.448820	883.338807	-27.523226	280.999471	978.812394	-44.292658	378.275166	792.871044	-49.274242	369.429939	765.659398	-158.009419	344.732382	674.920142	-21.722881	338.198573	588.699148	-38.993528	292.107518	514.993538	-39.108485	358.125478	585.717579	-73.385663	256.509854	437.034608	-40.953183	192.178439	402.857910	-88.101193	469.090023	397.520492	-97.092700	375.542633	372.314877	-23.774551	134.078801	919.084457	-424.866915	201.584167	864.336895	-417.414323	230.208662	885.368146	-404.772424	232.516251	780.749647	-410.006420	260.171715	671.348635	-379.811057	254.275534	658.523295	-262.026943	2.047763	399.995772	-373.846485	-75.348628	410.691174	-327.165943	74.073345	280.983607	-394.992178	195.010423	587.297279	-402.144777	150.510009	515.183386	-380.971838	75.144934	468.238717	-383.712311	167.317855	502.945781	-346.443272	151.199899	244.381800	-335.253582	-204.559839	866.900589	-203.132339	-52.118005	83.754434	-410.331191	-50.879254	80.103213	-12.955846	
